<svg xmlns="http://www.w3.org/2000/svg" xmlns:xlink="http://www.w3.org/1999/xlink" width="160" height="44" viewBox="0 0 160 44">
    <defs>
        <path id="78ubywgh0a" d="M28.914 41.291h-6.773l-2.448-6.88h-6.425l1.667-5.273h3.371c-2.114-6.289-3.462-10.304-4.182-12.979h-.038c-.606 2.425-1.727 6.03-3.046 10.236-.068.22-.136.44-.212.66l-.34 1.083-.319 1-1.667 5.274-2.175 6.88H.16l10.115-29.778h8.085l10.554 29.777zm3.774 0V11.512h6.244v29.78h-6.244zM35.81.4c2.665 0 4.823 2.159 4.823 4.823 0 2.664-2.158 4.823-4.823 4.823-2.664 0-4.823-2.16-4.823-4.823C30.987 2.56 33.147.4 35.81.4z"/>
        <path id="0odgrpd3kc" d="M9.048 5.348H0V.07h24.506v5.278h-9.014v24.5H9.048v-24.5zm33.807 17.486c0 2.155.006 4.497.044 6.497h-6.066c-.087-.6-.13-1.797-.167-2.579-1.326 2.244-3.3 3.097-6.157 3.097-4.554 0-7.463-2.768-7.463-8.312V6.974h6.185v13.322c0 2.468.765 4.508 3.444 4.508 2.823 0 3.99-1.504 3.99-5.931V6.974h6.19v15.86zm41.026-7.16c-.044-2.603-1.083-4.793-4.099-4.793-2.966 0-4.16 2.045-4.407 4.793h8.506zm-8.635 3.802c.005 2.796 1.406 5.53 4.487 5.53 2.578 0 3.314-1.035 3.9-2.388h6.196c-.793 2.737-3.234 7.23-10.258 7.23-7.364 0-10.559-5.505-10.559-11.371 0-7.013 3.6-12.021 10.78-12.021 7.678 0 10.29 5.554 10.29 11.135 0 .756 0 1.247-.082 1.885H75.246zM58.506 7.223c5.899 0 8.841 4.862 8.841 10.927 0 6.196-3.192 11.699-9.422 11.699-3.15 0-4.574-.94-5.62-2.45v1.948H52v.001h-5.738V.093h6.042v21.311c.502 2.206 1.762 3.687 4.303 3.687 3.049 0 4.65-2.737 4.65-6.826 0-3.604-1.342-6.247-4.583-6.247-1.216 0-2.148.286-2.852.845l1.929-5.273c.778-.223 1.676-.367 2.754-.367z"/>
    </defs>
    <g fill="none" fill-rule="evenodd">
        <g transform="translate(12 1)">
            <mask id="iio593o49b" fill="#fff">
                <use xlink:href="#78ubywgh0a"/>
            </mask>
            <use fill="#FDC23E" xlink:href="#78ubywgh0a"/>
            <g fill="#FDC23E" mask="url(#iio593o49b)">
                <path d="M1 0H85V84H1z" transform="translate(-16 -15)"/>
            </g>
        </g>
        <g transform="translate(12 1) translate(45.838 11.814)">
            <mask id="lz356c3y5d" fill="#fff">
                <use xlink:href="#0odgrpd3kc"/>
            </mask>
            <use fill="#474747" xlink:href="#0odgrpd3kc"/>
            <g fill="#474747" mask="url(#lz356c3y5d)">
                <path d="M1 1H92V35H1z" transform="translate(0 -34)"/>
            </g>
        </g>
    </g>
</svg>
