<svg xmlns="http://www.w3.org/2000/svg" xmlns:xlink="http://www.w3.org/1999/xlink" width="170" height="48" viewBox="0 0 170 48">
    <defs>
        <path id="964p8uufea" d="M31.017 46.22h-7.266l-2.625-7.7h-6.893l1.788-5.904h3.617c-2.268-7.04-3.714-11.534-4.487-14.528h-.04c-.65 2.714-1.853 6.75-3.268 11.458-.073.246-.146.492-.228.738l-.365 1.213-.341 1.12-1.789 5.902-2.333 7.701H.172l10.85-33.331h8.673L31.017 46.22zm4.049 0V12.887h6.697V46.22h-6.697zM38.415.447c2.858 0 5.174 2.417 5.174 5.4 0 2.981-2.316 5.398-5.174 5.398-2.858 0-5.174-2.417-5.174-5.398 0-2.983 2.316-5.4 5.174-5.4z"/>
        <path id="2257mf03sc" d="M9.744 5.952H0V.078h26.392v5.874h-9.708v27.271h-6.94V5.953zm36.408 19.464c0 2.398.006 5.005.047 7.23h-6.533c-.093-.667-.139-2-.18-2.87-1.427 2.498-3.554 3.447-6.63 3.447-4.905 0-8.037-3.081-8.037-9.251V7.762h6.66V22.59c0 2.748.825 5.018 3.71 5.018 3.04 0 4.297-1.674 4.297-6.602V7.762h6.666v17.654zm44.181-7.97c-.047-2.897-1.166-5.335-4.414-5.335-3.194 0-4.48 2.276-4.746 5.335h9.16zm-9.3 4.231c.006 3.113 1.515 6.155 4.833 6.155 2.776 0 3.569-1.151 4.201-2.657h6.672c-.854 3.046-3.483 8.048-11.047 8.048-7.93 0-11.371-6.129-11.371-12.657 0-7.806 3.876-13.38 11.609-13.38 8.269 0 11.08 6.181 11.08 12.394 0 .842 0 1.388-.087 2.097h-15.89zM63.008 8.04c6.352 0 9.521 5.412 9.521 12.162 0 6.897-3.438 13.022-10.148 13.022-3.391 0-4.925-1.046-6.052-2.727v2.168h-.327v.002h-6.18V.104H56.329v23.72c.54 2.455 1.898 4.103 4.635 4.103 3.283 0 5.008-3.046 5.008-7.597 0-4.011-1.446-6.954-4.936-6.954-1.31 0-2.314.319-3.072.94l2.078-5.868c.837-.249 1.805-.409 2.966-.409z"/>
    </defs>
    <g fill="none" fill-rule="evenodd" transform="translate(12 1.043)">
        <mask id="gzn4my3xsb" fill="#fff">
            <use xlink:href="#964p8uufea"/>
        </mask>
        <use fill="#FDC23E" xlink:href="#964p8uufea"/>
        <g fill="#F5F5F5" mask="url(#gzn4my3xsb)">
            <path d="M1 1H91V95H1z" transform="translate(-17 -17)"/>
        </g>
        <g transform="translate(49 13.565)">
            <mask id="g6j8b7195d" fill="#fff">
                <use xlink:href="#2257mf03sc"/>
            </mask>
            <use fill="#474747" xlink:href="#2257mf03sc"/>
            <g fill="#474747" mask="url(#g6j8b7195d)">
                <path d="M1 1H99V38H1z" transform="translate(0 -38)"/>
            </g>
        </g>
    </g>
</svg>
